<?xml version="1.0" standalone="no"?>
<!DOCTYPE svg PUBLIC "-//W3C//DTD SVG 20010904//EN"
 "http://www.w3.org/TR/2001/REC-SVG-20010904/DTD/svg10.dtd">
<svg version="1.0" xmlns="http://www.w3.org/2000/svg"
 width="797.000000pt" height="797.000000pt" viewBox="0 0 797.000000 797.000000"
 preserveAspectRatio="xMidYMid meet">

<g transform="translate(0.000000,797.000000) scale(0.100000,-0.100000)"
fill="#000000" stroke="none">
<path d="M1630 7843 c-144 -17 -381 -88 -525 -158 -440 -212 -781 -625 -901
-1090 -19 -71 -39 -165 -44 -210 -7 -54 -10 -838 -8 -2440 l3 -2360 38 -144
c43 -165 79 -261 144 -381 138 -255 326 -463 565 -623 210 -141 410 -219 683
-267 120 -20 128 -20 2440 -17 l2320 3 107 21 c245 49 471 139 653 261 115 77
291 242 375 352 80 106 184 281 221 375 18 44 35 85 40 90 4 6 27 82 51 170
l43 160 0 2410 c0 2670 6 2400 -63 2655 -67 245 -232 520 -437 726 -245 246
-575 404 -970 464 -58 9 -4660 11 -4735 3z m2433 -2098 c619 -93 1157 -486
1441 -1053 133 -266 197 -543 197 -858 0 -194 -34 -452 -62 -469 -7 -5 -178
20 -1194 174 -214 32 -413 62 -442 66 -62 8 -78 25 -77 80 1 61 45 132 149
243 157 166 204 251 220 399 21 188 -89 382 -267 467 -112 54 -191 69 -333 63
-99 -3 -132 -9 -189 -30 -103 -40 -182 -93 -267 -177 -116 -115 -192 -240
-234 -383 -16 -55 -18 -57 -50 -57 -19 0 -37 5 -40 10 -10 16 32 155 71 232
44 86 87 146 189 257 42 47 80 92 85 102 12 21 132 818 125 829 -2 4 -38 11
-78 14 -67 7 -108 19 -97 29 19 17 271 64 435 81 71 7 319 -4 418 -19z m-1439
-452 c-7 -48 -41 -268 -74 -488 -33 -220 -69 -458 -80 -530 -11 -71 -33 -220
-50 -330 -17 -110 -39 -261 -50 -335 -11 -74 -26 -173 -34 -220 -7 -47 -10
-87 -6 -90 5 -3 97 -18 207 -34 109 -16 259 -39 333 -51 100 -17 138 -19 146
-11 6 6 40 200 74 430 34 231 71 451 81 489 41 146 121 253 211 283 107 35
228 -7 275 -95 31 -60 32 -166 1 -248 -17 -48 -42 -79 -145 -184 -98 -101
-130 -141 -156 -196 -31 -65 -32 -73 -32 -193 0 -112 2 -130 25 -175 74 -153
264 -241 600 -279 74 -9 209 -27 300 -41 91 -14 239 -36 330 -50 91 -13 239
-36 330 -50 91 -13 239 -36 329 -49 90 -14 165 -27 168 -30 14 -13 -131 -200
-252 -325 -395 -408 -962 -626 -1517 -582 -610 49 -1135 355 -1470 856 -384
575 -433 1300 -129 1920 100 203 244 401 401 549 86 80 181 156 190 151 4 -2
1 -44 -6 -92z"/>
</g>
</svg>
